<?xml version="1.0" encoding="UTF-8" standalone="no"?>
<!-- Generator: Adobe Illustrator 18.1.1, SVG Export Plug-In . SVG Version: 6.00 Build 0)  -->

<svg
   xmlns:dc="http://purl.org/dc/elements/1.1/"
   xmlns:cc="http://creativecommons.org/ns#"
   xmlns:rdf="http://www.w3.org/1999/02/22-rdf-syntax-ns#"
   xmlns:svg="http://www.w3.org/2000/svg"
   xmlns="http://www.w3.org/2000/svg"
   xmlns:sodipodi="http://sodipodi.sourceforge.net/DTD/sodipodi-0.dtd"
   xmlns:inkscape="http://www.inkscape.org/namespaces/inkscape"
   version="1.1"
   id="Layer_1"
   x="0px"
   y="0px"
   viewBox="-249 83.1 100 100"
   enable-background="new -249 83.1 381 416"
   xml:space="preserve"
   sodipodi:docname="drupal8-logo_resize.svg"
   width="100"
   height="100"
   inkscape:version="0.92.4 (5da689c313, 2019-01-14)"><metadata
   id="metadata25"><rdf:RDF><cc:Work
       rdf:about=""><dc:format>image/svg+xml</dc:format><dc:type
         rdf:resource="http://purl.org/dc/dcmitype/StillImage" /><dc:title></dc:title></cc:Work></rdf:RDF></metadata><defs
   id="defs23" /><sodipodi:namedview
   pagecolor="#ffffff"
   bordercolor="#666666"
   borderopacity="1"
   objecttolerance="10"
   gridtolerance="10"
   guidetolerance="10"
   inkscape:pageopacity="0"
   inkscape:pageshadow="2"
   inkscape:window-width="1440"
   inkscape:window-height="848"
   id="namedview21"
   showgrid="false"
   fit-margin-top="0"
   fit-margin-left="0"
   fit-margin-right="0"
   fit-margin-bottom="0"
   inkscape:zoom="0.56730769"
   inkscape:cx="-270.87542"
   inkscape:cy="148.60001"
   inkscape:window-x="0"
   inkscape:window-y="0"
   inkscape:window-maximized="1"
   inkscape:current-layer="Layer_1" />
<g
   id="g18"
   transform="matrix(0.28383109,0,0,0.28383109,-181.70408,55.699262)">
	<g
   id="g4">
		<path
   d="m -69.7,312.5 c -29.1,0 -52.7,23.6 -52.7,52.7 0,29.1 23.6,52.7 52.7,52.7 29.1,0 52.7,-23.6 52.7,-52.7 0,-29.1 -23.6,-52.7 -52.7,-52.7 z"
   id="path2"
   inkscape:connector-curvature="0"
   style="fill:#2ba9e0" />
	</g>
	<g
   id="g8">
		<path
   d="m -4.1,302.4 c 15.6,16.3 25.2,38.4 25.2,62.8 0,30.9 -15.4,58.1 -38.9,74.5 43.5,-13.4 79.5,-46.1 95.6,-85.7 22.3,-54.8 1.5,-96 -33.3,-133.4 1.1,4.8 1.7,9.9 1.7,15 -0.1,31.8 -21.3,58.5 -50.3,66.8 z"
   id="path6"
   inkscape:connector-curvature="0"
   style="fill:#2ba9e0" />
	</g>
	<g
   id="g12">
		<path
   d="m -63.7,235.7 c 0,22.3 18.1,40.3 40.3,40.3 22.2,0 40.4,-18.1 40.4,-40.3 0,-22.3 -18.1,-40.3 -40.3,-40.3 -22.2,0 -40.4,18 -40.4,40.3 z"
   id="path10"
   inkscape:connector-curvature="0"
   style="fill:#2ba9e0" />
	</g>
	<g
   id="g16">
		<path
   d="m -139.2,423.7 c -13.3,-15.8 -21.3,-36.2 -21.3,-58.5 0,-46.5 34.9,-84.8 80,-90.1 -7.7,-11.2 -12.3,-24.8 -12.3,-39.4 0,-38.4 31.1,-69.4 69.5,-69.4 3.2,0 6.3,0.2 9.3,0.6 -22.7,-19.6 -45.4,-39.5 -63.3,-61.2 9.1,95.2 -86.7,60.6 -122.2,148.4 -23.7,58.8 -2.3,131.5 60.3,169.6 z"
   id="path14"
   inkscape:connector-curvature="0"
   style="fill:#2ba9e0" />
	</g>
</g>
</svg>